<?xml version="1.0" encoding="utf-8"?>
<!-- Generator: Adobe Illustrator 18.0.0, SVG Export Plug-In . SVG Version: 6.00 Build 0)  -->
<!DOCTYPE svg PUBLIC "-//W3C//DTD SVG 1.1//EN" "http://www.w3.org/Graphics/SVG/1.1/DTD/svg11.dtd">
<svg version="1.1" id="Layer_1" xmlns="http://www.w3.org/2000/svg" xmlns:xlink="http://www.w3.org/1999/xlink" x="0px" y="0px"
	 viewBox="0 0 612 792" enable-background="new 0 0 612 792" xml:space="preserve">
<linearGradient id="SVGID_1_" gradientUnits="userSpaceOnUse" x1="306" y1="792" x2="306" y2="-1.373792e-008">
	<stop  offset="8.118839e-002" style="stop-color:#ED683C"/>
	<stop  offset="0.2151" style="stop-color:#EF763D"/>
	<stop  offset="0.2546" style="stop-color:#F3903F"/>
	<stop  offset="0.3172" style="stop-color:#F59E40"/>
	<stop  offset="0.4946" style="stop-color:#FFF33B"/>
	<stop  offset="0.5359" style="stop-color:#FFE029"/>
	<stop  offset="0.585" style="stop-color:#FFD218"/>
	<stop  offset="0.6356" style="stop-color:#FEC90F"/>
	<stop  offset="0.6895" style="stop-color:#FDC70C"/>
	<stop  offset="1" style="stop-color:#E93E3A"/>
</linearGradient>
<rect fill="url(#SVGID_1_)" width="612" height="792"/>
<line fill="none" x1="0" y1="773" x2="593" y2="0"/>
<line fill="none" x1="-401" y1="-58" x2="192" y2="-831"/>
<g id="XMLID_1_">
	<g>
	</g>
	<g>
	</g>
</g>
<rect x="171" y="162" fill="#282C3F" stroke="#434343" stroke-miterlimit="10" width="301" height="443"/>
<rect x="199" y="311" fill="#E59F24" width="49" height="49"/>
<rect x="266" y="310" fill="#E59F24" width="49" height="49"/>
<rect x="332" y="310" fill="#EFEFEF" width="49" height="49"/>
<rect x="398" y="309" fill="#EFEFEF" width="49" height="49"/>
<rect x="398" y="375" fill="#EFEFEF" width="49" height="49"/>
<rect x="332" y="375" fill="#EFEFEF" width="49" height="49"/>
<rect x="265" y="375" fill="#EFEFEF" width="49" height="49"/>
<rect x="198" y="374" fill="#EFEFEF" width="49" height="49"/>
<rect x="198" y="440" fill="#EFEFEF" width="49" height="49"/>
<rect x="198" y="507" fill="#EFEFEF" width="49" height="49"/>
<rect x="264" y="440" fill="#EFEFEF" width="49" height="49"/>
<rect x="332" y="440" fill="#EFEFEF" width="49" height="49"/>
<rect x="397" y="440" fill="#EFEFEF" width="49" height="49"/>
<rect x="264" y="506" fill="#EFEFEF" width="49" height="49"/>
<rect x="331" y="506" fill="#EFEFEF" width="49" height="49"/>
<rect x="396" y="505" fill="#EFEFEF" width="49" height="49"/>
<rect x="370" y="202" fill="none" width="77" height="57"/>
<text transform="matrix(1 0 0 1 370 227.5596)" fill="#F4F4F4" font-family="'MyriadPro-Regular'" font-size="36">16.0</text>
<rect x="171" y="256" fill="none" width="111" height="18"/>
<text transform="matrix(1 0 0 1 203.7925 265.9399)" fill="#EC8623" font-family="'MyriadPro-Regular'" font-size="14">8+8=16</text>
<line fill="none" x1="214" y1="283" x2="432" y2="283"/>
<line fill="#FDFDFE" stroke="#434343" stroke-width="2" stroke-miterlimit="10" x1="214" y1="186" x2="439" y2="186"/>
<line fill="#FDFDFE" stroke="#434343" stroke-width="2" stroke-miterlimit="10" x1="206.5" y1="293" x2="436.5" y2="295"/>
</svg>
